<?xml version="1.0" standalone="no"?>
<!DOCTYPE svg PUBLIC "-//W3C//DTD SVG 20010904//EN"
 "http://www.w3.org/TR/2001/REC-SVG-20010904/DTD/svg10.dtd">
<svg version="1.0" xmlns="http://www.w3.org/2000/svg"
 width="1280.000000pt" height="720.000000pt" viewBox="0 0 1280.000000 720.000000"
 preserveAspectRatio="xMidYMid meet">

<g transform="translate(0.000000,720.000000) scale(0.100000,-0.100000)"
fill="#000000" stroke="none">
<path d="M0 7106 l0 -93 53 -6 c28 -3 109 -3 178 0 112 5 222 -3 193 -14 -7
-2 -8 -19 -3 -51 11 -69 11 -140 -2 -144 -6 -2 -14 -19 -18 -38 -8 -41 -36
-52 -57 -22 -9 13 -21 18 -34 15 -29 -8 -70 5 -70 22 0 22 -37 55 -54 49 -8
-3 -14 -16 -13 -29 1 -13 -1 -24 -5 -24 -56 -5 -88 1 -88 14 0 8 5 15 10 15 6
0 10 6 10 13 0 23 21 37 40 27 13 -7 25 -4 43 10 14 11 32 17 40 14 8 -3 18
-1 22 5 3 6 -2 11 -12 11 -10 0 -24 9 -31 20 -7 11 -18 20 -26 20 -7 0 -21 -9
-31 -20 -18 -20 -65 -28 -65 -11 0 5 18 25 40 45 l40 36 -39 0 c-22 0 -43 -4
-46 -10 -11 -18 -15 -80 -5 -80 6 0 10 -9 10 -20 0 -17 -7 -20 -40 -20 l-40 0
0 -3031 c0 -2424 3 -3029 13 -3022 21 17 77 32 94 26 14 -5 13 -8 -5 -14 -13
-5 -22 -17 -22 -30 0 -23 -46 -84 -64 -84 -6 0 -12 -7 -14 -17 -3 -14 3 -15
37 -11 36 5 41 3 41 -15 0 -11 7 -22 15 -26 24 -9 18 -26 -9 -26 -14 0 -33 11
-44 25 -38 48 -42 34 -42 -135 l0 -160 120 0 120 0 0 -38 0 -39 122 -6 c125
-7 317 -7 241 0 -43 4 -43 4 -43 44 l0 39 120 0 120 0 0 -40 0 -40 -42 -1
c-26 -1 -34 -4 -19 -6 13 -3 39 -2 57 2 32 5 34 8 34 45 0 36 3 40 25 40 23 0
25 4 25 40 l0 40 40 0 40 0 0 40 c0 22 -4 40 -10 40 -5 0 -10 18 -10 40 0 22
5 40 10 40 6 0 10 -18 10 -40 l0 -40 40 0 c33 0 40 3 40 20 0 29 69 29 77 0 3
-11 11 -20 18 -20 9 0 11 22 9 80 -3 74 -1 80 17 80 16 0 19 -7 19 -40 0 -22
4 -40 9 -40 6 0 11 -15 13 -32 l4 -33 11 37 c12 38 8 54 -30 140 -10 21 -17
43 -17 50 0 8 -7 23 -14 34 -8 12 -15 30 -14 40 0 23 -20 84 -60 174 -54 124
-53 123 -122 198 -50 55 -157 82 -328 82 -60 0 -94 4 -107 14 -19 14 -19 15 5
24 102 39 333 75 492 76 114 1 118 2 118 23 0 12 -4 25 -10 28 -5 3 -10 15
-10 25 0 10 -3 20 -8 22 -4 2 -32 32 -62 68 -30 36 -65 75 -77 87 -12 12 -27
31 -35 41 -7 10 -38 28 -68 39 -175 64 -230 89 -230 102 0 12 45 13 298 8 276
-6 366 -13 417 -36 46 -20 166 -52 175 -46 17 10 -9 49 -68 102 -85 77 -235
193 -250 193 -8 0 -12 8 -10 18 4 20 60 20 268 0 175 -18 256 -17 252 1 -29
132 -25 303 8 402 21 61 20 99 -2 126 -13 17 -45 17 -51 1 -3 -10 -8 -10 -23
-1 -11 7 -34 20 -53 28 -27 12 -32 19 -27 37 3 13 6 38 6 56 0 17 5 32 10 32
6 0 10 -13 10 -28 0 -26 3 -28 30 -24 42 6 39 34 -5 58 -27 15 -32 44 -7 44
11 0 25 7 32 15 7 8 24 15 39 15 14 0 37 9 50 19 l23 18 -23 23 -24 22 90 -6
c50 -3 101 -6 115 -5 14 1 39 3 56 3 24 1 30 6 32 25 1 14 12 35 23 47 21 22
21 35 4 76 -6 15 16 30 50 33 28 2 75 42 75 63 0 30 28 72 49 72 14 0 51 32
51 44 0 13 -36 14 -66 1 -30 -12 -34 -12 -34 1 0 7 7 14 15 14 11 0 15 11 15
35 0 43 17 52 60 33 32 -14 45 -37 36 -66 -5 -14 4 -22 37 -36 24 -10 63 -35
87 -57 23 -21 49 -39 56 -39 8 0 14 -7 14 -15 0 -19 32 -19 100 1 29 8 61 14
70 11 10 -2 53 -1 96 4 44 4 144 13 224 19 132 10 146 9 157 -6 15 -20 16 -3
-42 -449 -40 -301 -37 -650 6 -820 30 -116 34 -131 64 -220 14 -44 31 -96 37
-115 15 -51 72 -106 124 -120 54 -15 149 -7 173 14 10 9 23 16 30 16 22 0 211
67 293 103 21 10 44 17 52 17 8 0 28 5 43 11 15 6 37 15 48 19 49 19 155 74
155 80 0 4 21 19 48 33 26 15 60 38 76 51 27 22 28 27 21 68 -4 23 -9 76 -11
117 -2 61 -7 76 -24 88 -14 10 -20 23 -18 40 2 18 -4 30 -19 40 -22 15 -23 14
-23 -16 0 -34 -25 -62 -63 -72 -13 -3 -21 -12 -19 -21 2 -12 -13 -18 -60 -27
-97 -19 -98 -19 -98 -52 0 -28 -2 -29 -45 -29 -31 0 -47 5 -51 15 -4 8 -12 15
-20 15 -19 0 -18 48 2 118 14 46 15 79 9 187 -4 71 -8 143 -9 160 -1 20 -7 31
-19 33 -14 3 -17 -1 -13 -20 13 -61 15 -181 6 -253 -14 -109 -41 -217 -57
-233 -7 -7 -13 -27 -13 -43 0 -19 -5 -29 -15 -29 -8 0 -15 -5 -15 -11 0 -6 6
-8 12 -5 7 3 20 9 30 12 9 3 19 15 21 26 6 20 6 20 37 2 25 -15 34 -16 50 -6
31 19 84 15 105 -8 13 -14 25 -18 44 -13 28 7 93 42 102 56 15 21 44 -58 30
-81 -4 -7 -18 -15 -31 -17 -13 -3 -28 -11 -32 -20 -5 -8 -18 -15 -28 -15 -11
0 -20 -4 -20 -9 0 -5 -16 -12 -35 -15 -20 -4 -33 -11 -30 -16 3 -5 -4 -14 -15
-20 -11 -6 -17 -16 -14 -22 4 -6 3 -8 -3 -5 -6 4 -16 0 -23 -8 -7 -8 -19 -15
-26 -15 -8 0 -14 -4 -14 -9 0 -5 -18 -12 -40 -16 -26 -4 -40 -12 -40 -22 0
-12 -10 -14 -50 -11 -27 3 -47 1 -45 -2 6 -10 -52 -60 -59 -53 -3 4 -6 1 -6
-5 0 -6 -10 -13 -22 -15 -20 -4 -20 -4 4 -6 51 -2 41 -21 -11 -21 -34 0 -51 4
-51 13 0 6 -15 17 -34 23 -43 13 -126 -3 -126 -24 0 -12 -3 -12 -15 -2 -24 20
-18 33 31 63 35 21 45 32 42 50 -2 16 -10 22 -30 22 -16 1 -28 -4 -28 -11 0
-7 -10 -9 -25 -6 -25 4 -45 22 -26 22 6 0 11 5 11 10 0 6 -9 10 -20 10 -15 0
-20 7 -20 25 0 15 -6 25 -15 25 -32 0 -65 23 -65 47 0 12 5 23 10 23 6 0 10
14 10 30 0 17 -4 30 -10 30 -5 0 -10 8 -10 18 0 9 -6 28 -13 42 -11 22 -24 69
-42 165 -3 17 -11 54 -17 83 -7 38 -7 74 0 124 7 45 7 78 1 89 -13 25 -11 39
5 39 11 0 15 26 20 113 7 133 6 123 18 217 5 41 14 80 20 87 5 7 8 65 7 135
-4 135 1 248 10 248 9 0 7 254 -2 268 -5 8 -3 22 6 36 16 24 22 170 11 257 -3
26 1 81 10 127 l15 82 -43 112 c-56 144 -76 235 -76 337 0 45 -2 81 -5 81 -12
0 -51 -27 -68 -47 -13 -17 -29 -23 -57 -23 -21 0 -40 5 -42 10 -3 10 -57 3
-115 -15 -15 -5 -27 -1 -39 14 -10 12 -28 21 -41 21 -12 0 -25 5 -28 10 -3 6
-30 10 -58 10 -49 0 -91 -14 -167 -57 -14 -8 -33 -17 -42 -20 -10 -3 -18 -13
-18 -22 0 -32 -13 -32 -26 -1 -7 17 -18 29 -24 28 -5 -2 -16 8 -23 22 -8 16
-21 25 -35 24 -12 0 -22 4 -22 10 -1 16 -67 47 -85 40 -24 -10 -17 -23 17 -32
38 -10 81 -72 50 -72 -16 -1 -16 -1 1 -14 9 -7 17 -25 17 -40 0 -30 -22 -34
-65 -12 -19 10 -36 12 -58 5 -20 -6 -33 -5 -37 1 -4 6 -14 8 -24 4 -14 -5 -15
-9 -4 -15 9 -6 2 -9 -19 -9 -18 0 -33 5 -33 10 0 15 -14 12 -37 -9 -20 -19
-20 -19 -46 10 -14 16 -35 29 -47 29 -11 0 -34 7 -50 15 -27 14 -60 12 -60 -4
0 -4 -17 -5 -37 -3 -32 4 -74 34 -85 61 -3 9 -48 34 -90 52 -16 6 -28 15 -28
20 0 4 -17 11 -37 15 -21 4 -41 11 -44 16 -7 11 -39 13 -61 3 -11 -4 -18 -3
-18 4 0 7 -8 7 -26 1 -47 -18 -84 -12 -94 15 -5 14 -16 25 -24 25 -8 0 -16 5
-18 11 -5 14 -55 16 -81 5 -15 -7 -17 -4 -15 15 2 13 7 30 12 37 4 7 5 28 2
46 -5 27 -1 40 25 72 38 48 59 87 59 110 0 30 43 83 80 98 19 8 43 24 52 35
10 11 30 24 45 27 60 15 72 74 21 95 -18 7 -36 18 -41 23 -4 7 -14 2 -27 -14
-20 -25 -24 -24 -42 10 -2 3 -28 17 -58 32 -65 33 -86 31 -235 -17 -115 -37
-171 -38 -161 -1 3 11 6 23 6 26 0 4 15 11 33 18 38 14 93 63 102 91 8 26 39
35 64 20 15 -10 25 -10 47 0 19 8 29 9 34 2 4 -7 37 -9 91 -6 46 2 92 5 102 5
9 0 27 10 40 23 17 17 34 22 72 23 28 0 60 4 73 8 14 6 22 4 22 -3 0 -6 -9
-11 -20 -11 -26 0 -36 -25 -22 -56 12 -25 47 -32 80 -15 9 5 43 21 75 36 51
25 58 31 55 54 -3 25 -5 26 -73 27 -90 0 -95 1 -95 19 0 11 -12 15 -49 15 -28
0 -53 -4 -56 -10 -3 -5 -15 -10 -26 -10 -10 0 -19 5 -19 10 0 6 5 10 10 10 16
0 12 40 -5 46 -8 4 -15 12 -15 20 0 8 -10 14 -22 14 -32 0 -88 22 -88 35 0 13
32 45 45 45 4 0 14 8 21 18 13 16 13 16 14 -1 0 -23 46 -45 62 -29 7 7 7 19
-1 42 -12 35 3 114 27 138 7 8 19 27 27 42 15 29 15 29 -18 32 -28 3 -32 6
-32 33 0 25 -4 30 -25 30 -20 0 -28 8 -37 35 -15 44 -16 80 -3 80 6 0 10 -4
10 -9 0 -9 68 -21 86 -14 13 5 -15 116 -34 135 -21 21 -14 38 17 38 21 0 30 6
35 23 10 37 7 47 -12 47 -41 0 -63 59 -38 99 12 19 -12 31 -64 31 -54 0 -60
-4 -83 -54 -13 -27 -15 -42 -8 -49 18 -18 12 -27 -18 -27 -16 0 -34 -7 -41
-15 -16 -19 -64 -19 -98 -1 -44 23 -143 37 -182 26 -48 -14 -66 15 -35 56 18
24 20 84 3 84 -9 0 -8 3 2 10 8 5 11 12 7 17 -13 12 -61 -23 -81 -60 -10 -20
-26 -38 -35 -41 -9 -3 -22 -9 -28 -12 -9 -4 -13 6 -13 34 0 34 3 41 22 44 17
2 27 14 36 42 7 22 20 45 29 52 17 12 87 14 98 2 3 -3 15 -4 25 -1 16 4 17 9
8 34 -8 24 -13 27 -29 18 -15 -8 -21 -6 -26 7 -6 17 12 34 39 34 9 0 20 5 23
10 4 6 10 8 14 5 5 -2 16 2 26 9 19 14 13 36 -11 36 -21 0 -17 33 5 47 11 7
22 25 26 42 4 19 21 39 47 58 37 25 39 28 19 31 -12 2 -33 -4 -47 -13 -17 -11
-30 -13 -41 -6 -11 6 -21 4 -30 -5 -8 -7 -31 -18 -52 -24 -23 -6 -42 -19 -48
-32 l-10 -23 -13 25 c-16 31 -31 41 -48 35 -8 -3 -16 4 -19 15 -3 11 -14 20
-24 20 -22 0 -23 -1 -7 -35 13 -30 -4 -71 -34 -81 -10 -3 -28 -27 -40 -52 -33
-71 -46 -77 -78 -32 -21 29 -21 32 -6 64 9 19 16 41 16 49 0 22 -26 40 -49 32
-10 -3 -22 -1 -26 5 -3 6 3 10 14 10 18 0 21 6 21 40 0 35 4 42 27 51 44 17
54 28 42 51 -6 10 -21 23 -35 28 -24 10 -33 30 -13 30 6 0 17 7 25 15 14 13 7
15 -58 17 -68 1 -66 2 32 8 120 8 408 5 417 -4 4 -3 -2 -6 -13 -6 -16 0 -17
-2 -4 -10 17 -11 11 -12 -47 -10 -26 1 -43 -3 -43 -10 0 -7 -5 -6 -14 2 -12
11 -10 14 13 19 14 4 -10 7 -54 7 -54 0 -72 -3 -55 -8 22 -7 20 -8 -15 -10
-22 -1 -49 -3 -60 -4 -26 -1 -31 -37 -10 -69 15 -24 15 -25 -15 -35 -42 -15
-38 -28 14 -41 60 -15 81 -14 96 4 7 8 26 15 42 15 32 0 62 13 91 39 11 9 51
21 90 26 l72 10 6 37 c3 23 2 39 -5 41 -6 3 14 7 44 11 30 4 1848 6 4039 4
3532 -3 3985 -5 3988 -18 2 -8 12 -71 24 -140 11 -68 23 -127 27 -130 23 -16
38 -85 52 -240 6 -63 15 -140 20 -170 5 -30 14 -89 20 -130 7 -41 18 -111 25
-155 8 -44 21 -125 30 -180 29 -172 53 -273 84 -350 24 -58 32 -104 41 -224 8
-100 16 -142 33 -179 12 -26 24 -49 27 -52 13 -13 50 -70 69 -108 18 -36 20
-48 11 -80 -14 -52 -12 -150 5 -197 8 -22 15 -50 15 -62 0 -12 4 -32 9 -45 46
-116 69 -188 68 -216 0 -27 10 -43 56 -90 51 -51 58 -64 68 -117 10 -57 39
-183 58 -252 9 -34 109 -245 121 -253 3 -3 21 -34 39 -70 19 -36 37 -67 41
-70 4 -3 15 -21 24 -40 26 -57 114 -179 123 -170 7 7 33 -58 29 -73 -7 -23
-76 -578 -96 -767 -8 -76 -54 -352 -84 -505 -3 -11 -5 -23 -5 -26 -1 -5 -138
-5 -186 1 -17 2 -17 3 5 10 20 6 17 8 -17 6 -23 0 -41 -5 -40 -11 1 -5 -11 -9
-28 -7 -45 4 -55 10 -55 30 0 11 -14 25 -36 35 -35 17 -36 17 -41 -3 -4 -15
-10 -19 -22 -14 -9 4 -79 8 -155 10 -77 2 -142 7 -145 11 -17 22 -52 31 -112
26 -40 -3 -75 0 -94 8 -16 7 -34 11 -38 10 -14 -3 -157 42 -157 50 0 4 -18 10
-40 14 -34 6 -40 11 -40 31 0 28 -3 28 50 9 23 -8 58 -15 76 -15 34 0 46 -14
21 -23 -20 -9 26 -6 53 3 l25 8 -32 13 c-18 7 -33 19 -33 26 0 9 -14 13 -41
13 -31 0 -40 3 -36 14 10 25 -76 39 -86 14 -5 -13 -16 -3 -32 27 -3 6 -7 5
-11 -3 -3 -7 -12 -19 -20 -26 -8 -8 -14 -19 -14 -24 0 -5 -6 -15 -14 -21 -11
-10 -21 -9 -46 4 -25 13 -30 20 -24 38 6 19 5 20 -9 8 -17 -13 -49 -9 -45 6 1
4 -4 25 -11 47 -9 25 -16 34 -21 26 -14 -23 -32 1 -28 36 3 23 0 34 -9 34 -7
0 -13 5 -13 11 0 5 -4 8 -9 4 -5 -3 -8 -27 -7 -53 3 -36 -1 -52 -17 -69 -16
-18 -18 -25 -8 -37 8 -9 10 -27 6 -44 -8 -38 9 -80 37 -91 198 -80 287 -119
298 -132 9 -11 74 -42 105 -50 120 -31 176 -38 380 -50 213 -12 445 -15 625
-7 73 3 75 2 78 -21 2 -13 -5 -88 -17 -165 -25 -171 -41 -288 -52 -381 -4 -38
-20 -149 -34 -245 -34 -232 -63 -437 -69 -480 -2 -19 -13 -89 -25 -155 -12
-66 -23 -129 -25 -140 -3 -20 -12 -20 -2312 -23 -2011 -2 -2641 1 -2531 16 23
3 25 5 13 17 -17 17 -12 112 10 192 8 28 14 60 14 71 0 11 7 25 15 32 12 10
14 27 11 66 -2 30 0 54 4 54 5 0 14 15 20 34 11 35 33 51 52 40 7 -5 9 3 4 22
-4 16 -12 30 -17 32 -12 5 -12 32 0 32 5 0 11 -6 14 -13 7 -20 160 -92 218
-104 24 -4 31 -3 27 7 -2 8 -16 17 -30 21 -26 7 -98 58 -98 70 0 4 9 9 20 12
20 5 29 37 10 37 -5 0 -10 -7 -10 -15 0 -26 -18 -16 -25 14 -4 18 0 49 10 78
11 31 13 49 6 51 -7 2 -11 53 -11 141 0 110 -4 147 -20 193 -18 51 -18 60 -6
109 13 48 13 57 -2 81 -15 26 -15 30 1 57 18 30 17 37 -15 106 -5 11 -10 46
-12 78 -2 35 -10 65 -20 76 -9 9 -16 27 -16 39 0 11 -4 42 -10 69 -5 26 -12
65 -15 86 -4 23 -11 37 -20 37 -9 0 -15 10 -15 25 0 17 -6 25 -17 25 -15 1
-15 3 5 19 l22 19 -30 25 c-20 17 -30 35 -30 54 -1 42 -18 107 -29 111 -13 4
-14 39 -2 46 5 4 22 -7 38 -24 45 -48 53 -58 53 -75 0 -8 9 -15 20 -15 18 0
20 7 20 60 0 41 -7 74 -20 100 -11 22 -20 47 -20 57 0 10 -9 24 -21 31 -11 7
-31 37 -45 66 -13 28 -37 62 -53 74 -19 14 -32 35 -37 57 -7 41 -37 48 -49 13
l-8 -23 -4 23 c-7 37 -46 29 -67 -15 -12 -25 -14 -39 -7 -41 17 -6 13 -70 -6
-92 -10 -11 -20 -35 -23 -52 -4 -24 -11 -34 -30 -38 -13 -3 -27 -15 -30 -25
-10 -39 -27 -57 -46 -52 -17 4 -17 5 3 12 29 9 29 21 2 28 -18 5 -19 8 -8 29
7 13 13 30 14 38 0 8 11 17 25 20 31 7 54 48 38 67 -16 20 -38 16 -59 -11 -11
-14 -29 -28 -41 -32 -26 -8 -64 -45 -98 -96 -14 -21 -30 -38 -37 -38 -6 0 -14
-9 -18 -19 -3 -11 -16 -26 -28 -34 -48 -32 -87 -75 -87 -95 0 -15 -5 -20 -15
-16 -22 9 -20 -32 3 -45 13 -8 14 -12 5 -22 -9 -9 -9 -17 -1 -33 6 -11 11 -46
12 -78 1 -72 17 -80 65 -36 20 18 55 51 79 73 24 22 56 53 71 69 26 29 206
176 214 176 3 0 19 -37 37 -82 17 -46 40 -101 50 -123 56 -120 98 -214 110
-245 7 -19 23 -58 36 -86 28 -62 32 -83 49 -289 7 -88 18 -180 24 -205 15 -67
13 -254 -4 -343 -8 -43 -15 -99 -15 -123 0 -24 -4 -44 -9 -44 -5 0 -11 -10
-14 -22 -6 -27 -33 -104 -47 -133 -20 -44 -58 -191 -65 -250 -3 -27 -10 -70
-15 -95 -6 -25 -11 -58 -13 -75 l-4 -30 -2516 2 -2517 2 0 -100 0 -99 6400 0
6400 0 0 95 0 95 -827 1 c-456 0 -848 4 -873 8 l-45 8 37 2 c36 1 38 3 52 54
9 28 20 93 26 142 6 50 15 108 20 130 5 22 7 41 5 43 -6 6 -24 -62 -35 -130
-11 -74 -19 -98 -29 -98 -4 0 -8 -23 -8 -52 0 -29 -6 -54 -12 -56 -6 -2 -9 -8
-5 -13 3 -5 -4 -9 -16 -9 -18 0 -19 2 -8 22 6 13 15 43 19 68 4 25 13 65 19
90 6 25 11 56 12 70 1 38 17 201 25 262 5 29 8 116 8 193 -1 111 -4 146 -18
171 -14 27 -14 34 -3 43 16 14 27 61 14 61 -5 0 -8 26 -7 58 3 124 -10 338
-24 372 -27 65 -29 77 -12 84 9 3 25 1 36 -5 33 -17 44 3 58 103 24 172 24
173 51 173 14 0 29 -8 35 -20 15 -29 55 -31 56 -2 2 52 7 66 34 91 23 21 38
26 81 26 l54 0 0 -37 c0 -31 -2 -34 -12 -21 -18 21 -44 28 -57 15 -8 -8 -9 -5
-7 10 3 12 -1 20 -10 20 -10 0 -11 -4 -3 -13 7 -8 7 -14 -1 -19 -6 -3 -8 -10
-5 -15 3 -5 1 -11 -5 -15 -6 -4 -8 -11 -5 -16 4 -5 -9 -10 -27 -10 -33 -1 -33
-1 7 -9 21 -4 41 -13 43 -19 5 -14 23 -14 58 -1 26 10 26 11 8 25 -18 14 -17
14 12 9 19 -4 34 -1 38 5 5 7 67 11 187 11 l179 0 0 80 0 80 120 0 120 0 0 80
0 80 40 0 40 0 0 -40 0 -40 160 0 160 0 0 40 0 40 120 0 120 0 0 2440 0 2440
-6400 0 -6400 0 0 -94z m10825 -116 c-7 -11 22 -102 54 -167 23 -46 26 -69 11
-78 -5 -3 -10 3 -10 13 0 13 -11 24 -32 33 -37 14 -44 15 -75 5 -22 -7 -23 -4
-23 37 0 35 4 46 19 50 16 4 17 11 11 51 -4 25 -4 46 -1 47 3 0 -3 4 -14 9
-15 7 -10 9 23 9 27 1 41 -3 37 -9z m5 -210 c0 -5 -13 -16 -30 -25 -33 -17
-38 -11 -13 17 17 19 43 24 43 8z m113 -202 c3 -21 2 -38 -3 -38 -13 0 -20 30
-14 56 8 31 -17 41 -48 20 -12 -9 -28 -16 -36 -16 -20 0 5 41 29 47 11 3 22
17 26 31 6 24 7 23 23 -19 9 -24 20 -61 23 -81z m-166 75 c-3 -10 -5 -4 -5 12
0 17 2 24 5 18 2 -7 2 -21 0 -30z m-9788 -10 c18 -65 -18 -76 -43 -13 -20 51
-21 50 9 50 19 0 26 -7 34 -37z m9991 -169 c0 -11 3 -24 6 -27 10 -9 49 -109
65 -162 7 -25 17 -45 20 -45 4 0 11 -14 14 -32 4 -17 23 -66 42 -107 20 -42
46 -103 59 -136 12 -33 43 -109 68 -168 25 -60 46 -116 46 -126 0 -9 6 -25 13
-36 7 -11 19 -40 26 -65 7 -25 19 -58 26 -75 7 -16 25 -73 39 -125 14 -52 32
-108 40 -125 21 -47 37 -97 45 -136 4 -19 10 -40 14 -45 3 -6 7 -35 8 -65 1
-30 8 -72 15 -94 7 -22 20 -76 29 -120 10 -44 26 -116 36 -160 10 -45 23 -126
29 -180 6 -55 15 -134 21 -175 25 -196 17 -553 -18 -790 -9 -58 -18 -126 -21
-152 -2 -27 -7 -48 -12 -48 -4 0 -13 -21 -20 -47 -15 -59 -32 -106 -40 -113
-4 -3 -21 -47 -38 -98 -18 -50 -36 -100 -41 -110 -25 -48 -31 -75 -39 -166 -6
-60 -15 -101 -22 -106 -7 -4 -11 -17 -8 -27 3 -11 -4 -31 -17 -47 -17 -22 -32
-28 -76 -33 -43 -4 -57 -2 -68 11 -17 20 -35 20 -51 1 -7 -8 -23 -15 -35 -15
-12 0 -28 -7 -35 -15 -7 -8 -28 -15 -46 -15 -30 0 -34 -3 -34 -25 0 -16 -6
-25 -15 -25 -26 0 -16 -20 19 -37 34 -16 35 -17 29 -67 -7 -62 -55 -151 -92
-171 -14 -8 -20 -14 -13 -15 31 -1 7 -18 -40 -28 -81 -17 -108 -20 -108 -11 0
5 -8 9 -19 9 -10 0 -24 7 -31 15 -7 8 -16 15 -20 15 -16 0 -17 -55 -3 -102 22
-75 0 -88 -144 -89 -84 -1 -183 -23 -183 -41 0 -13 -23 -9 -41 8 -16 15 -22
14 -72 -9 -43 -21 -55 -32 -64 -61 -13 -43 -2 -57 38 -46 16 5 71 11 121 15
51 4 111 10 133 15 22 4 81 13 131 20 84 10 96 10 158 -10 65 -21 130 -23 196
-5 24 6 25 5 25 -47 1 -69 22 -260 40 -368 28 -163 18 -581 -20 -825 -8 -49
-19 -124 -25 -165 -5 -41 -20 -115 -32 -165 l-23 -90 -500 0 -500 0 1 25 c1
14 9 75 18 135 9 61 25 175 36 255 12 80 25 174 30 210 6 36 17 117 25 180 18
143 39 287 115 780 11 74 31 223 44 330 27 215 31 245 46 340 5 36 14 115 20
175 5 61 16 157 25 215 8 58 19 142 24 188 9 79 22 167 41 278 5 28 14 109 20
180 6 71 15 152 20 179 18 96 19 114 11 120 -10 5 -26 -83 -17 -92 3 -3 -1
-17 -8 -32 -20 -39 -46 -163 -46 -223 -1 -35 -4 -48 -9 -38 -11 18 6 194 19
198 5 2 7 22 4 45 -3 23 1 75 9 116 9 40 13 79 10 87 -3 8 -1 20 5 27 5 6 13
50 17 97 4 47 9 94 11 105 2 11 7 49 10 85 3 36 12 83 19 105 8 22 19 100 25
173 6 73 14 143 19 155 4 12 9 41 9 63 1 23 9 88 17 145 29 190 38 264 39 296
2 53 16 25 16 -32 0 -29 3 -62 7 -72 8 -22 50 224 58 347 6 85 9 111 41 310
10 58 21 132 25 165 4 33 15 112 24 175 17 117 23 163 24 190 1 12 3 13 10 1
10 -15 7 -47 -14 -221 -8 -63 -20 -158 -26 -210 -16 -147 -39 -338 -48 -410
-4 -36 -13 -108 -20 -160 -6 -52 -16 -124 -21 -160 -6 -36 -21 -150 -35 -255
-14 -104 -31 -230 -40 -280 -15 -89 -24 -164 -45 -380 -6 -60 -15 -132 -20
-160 -5 -27 -14 -88 -20 -135 -6 -47 -23 -159 -37 -250 -14 -91 -27 -203 -30
-249 -2 -47 -8 -93 -14 -102 -11 -22 -12 -89 -1 -89 5 0 14 -10 20 -22 7 -13
27 -43 46 -68 19 -25 35 -48 35 -52 1 -3 13 -19 29 -35 43 -45 129 -145 159
-185 15 -21 33 -38 38 -38 6 0 35 -32 65 -70 30 -39 60 -70 66 -70 6 0 16 11
22 25 6 14 19 25 27 25 9 0 13 5 10 10 -8 13 -3 14 132 35 l112 18 54 -27 c69
-35 107 -32 119 9 11 40 17 77 23 155 3 35 10 69 15 74 16 16 12 26 -9 26 -15
0 -18 -5 -14 -21 5 -17 2 -20 -13 -17 -24 4 -30 44 -11 66 8 9 17 35 19 57 6
41 64 175 81 187 6 3 11 26 12 50 1 23 16 99 34 168 33 132 59 388 48 482 -3
26 -3 48 1 50 4 2 6 40 4 85 -2 47 -8 80 -13 77 -5 -3 -7 -22 -4 -42 6 -36 6
-36 -8 -12 -8 14 -17 64 -21 111 -3 47 -9 100 -12 117 -5 24 -3 32 7 32 11 0
14 20 13 91 -1 74 -5 92 -20 103 -17 13 -17 16 -2 64 15 44 15 55 2 97 -7 26
-11 51 -8 56 8 13 -17 129 -28 129 -6 0 -8 7 -5 15 5 11 0 13 -25 8 -22 -4
-29 -3 -24 5 4 7 15 12 25 12 9 0 27 13 38 28 18 25 20 34 11 87 -5 33 -15 73
-23 89 -9 17 -11 34 -6 45 6 11 -3 46 -25 106 -19 50 -37 105 -40 123 -3 17
-10 32 -15 32 -4 0 -11 16 -15 35 -7 40 -24 57 -24 24 0 -21 19 -86 66 -224
23 -67 31 -115 18 -115 -22 0 -45 28 -60 76 -13 41 -24 58 -42 65 -23 9 -24
11 -8 28 19 20 21 42 5 58 -6 6 -14 27 -19 46 -6 28 -5 34 6 30 20 -8 6 66
-20 102 -12 17 -28 56 -35 87 -7 31 -19 62 -27 68 -7 7 -14 21 -14 32 0 10 -6
21 -14 24 -8 3 -12 12 -10 19 3 8 -6 33 -20 58 -14 24 -34 68 -45 98 -10 30
-27 74 -39 99 -11 25 -23 63 -27 85 -4 22 -11 45 -15 50 -3 6 -12 30 -20 55
-36 119 -72 226 -81 235 -19 19 -9 54 19 67 23 12 29 12 39 -2 7 -8 13 -24 13
-36z m-210 16 c0 -5 -4 -10 -10 -10 -5 0 -10 5 -10 10 0 6 5 10 10 10 6 0 10
-4 10 -10z m94 -74 c3 -36 3 -84 -1 -108 -7 -42 -7 -42 -14 -13 -10 45 -10
185 0 185 4 0 11 -29 15 -64z m-107 -13 c-3 -10 -5 -4 -5 12 0 17 2 24 5 18 2
-7 2 -21 0 -30z m40 -85 c-2 -13 -4 -3 -4 22 0 25 2 35 4 23 2 -13 2 -33 0
-45z m-49 -60 c-4 -40 -14 -131 -23 -203 -9 -71 -19 -149 -22 -172 -6 -48 -23
-59 -23 -15 0 27 25 220 35 266 2 12 7 55 10 96 7 89 15 126 24 111 4 -5 3
-43 -1 -83z m132 -100 c0 -30 -1 -30 -14 -13 -14 19 -11 45 5 45 5 0 9 -14 9
-32z m-9588 -100 c-17 -17 -46 10 -31 28 9 11 14 11 26 -2 11 -11 13 -18 5
-26z m9698 -13 c0 -5 -5 -3 -10 5 -5 8 -10 20 -10 25 0 6 5 3 10 -5 5 -8 10
-19 10 -25z m-310 -300 c0 -37 -4 -65 -10 -65 -5 0 -10 12 -10 28 0 33 11 102
16 102 2 0 4 -29 4 -65z m-9 -107 c-4 -13 -11 -61 -15 -108 -4 -47 -14 -125
-23 -175 -8 -49 -17 -118 -20 -152 -3 -35 -9 -63 -14 -63 -5 0 -9 3 -9 7 0 35
34 281 45 329 8 33 15 85 15 115 0 54 5 69 21 69 5 0 5 -10 0 -22z m578 -161
c1 -5 -3 -5 -9 -2 -5 3 -10 16 -9 28 0 21 1 21 9 2 5 -11 9 -24 9 -28z m181
-624 c-1 -18 -18 -35 -24 -24 -4 6 -4 16 -1 21 7 12 25 13 25 3z m-10170 -283
c0 -5 -7 -10 -15 -10 -8 0 -15 5 -15 10 0 6 7 10 15 10 8 0 15 -4 15 -10z
m-130 -80 c0 -5 -9 -10 -21 -10 -11 0 -17 5 -14 10 3 6 13 10 21 10 8 0 14 -4
14 -10z m1050 -215 c0 -24 5 -35 14 -35 18 0 29 -16 21 -30 -8 -13 -35 -1 -35
16 0 8 -4 14 -10 14 -5 0 -10 13 -10 29 0 16 -6 32 -12 34 -7 3 -3 6 10 6 19
1 22 -4 22 -34z m8175 -923 c-3 -3 -11 0 -18 7 -9 10 -8 11 6 5 10 -3 15 -9
12 -12z m-5 -54 c0 -29 -3 -38 -9 -29 -5 7 -7 21 -6 30 2 9 4 22 4 29 1 6 3
12 6 12 3 0 5 -19 5 -42z m-9230 -28 c0 -5 -2 -10 -4 -10 -3 0 -8 5 -11 10 -3
6 -1 10 4 10 6 0 11 -4 11 -10z m-110 -56 c0 -8 -4 -12 -10 -9 -5 3 -10 10
-10 16 0 5 5 9 10 9 6 0 10 -7 10 -16z m-50 -53 c0 -5 9 -11 20 -14 26 -7 26
-27 1 -27 -19 0 -39 -35 -27 -47 3 -4 6 -1 6 7 0 9 9 11 30 6 23 -4 35 -1 47
14 10 11 23 20 30 20 7 0 13 6 13 13 0 8 12 12 33 12 58 -3 67 -5 67 -14 0 -5
-8 -12 -17 -14 -12 -3 -9 -5 8 -6 22 -1 28 4 33 30 5 27 8 30 21 19 8 -7 15
-23 15 -36 0 -17 6 -24 19 -24 10 0 21 -6 23 -12 3 -11 3 -96 -1 -120 -2 -14
-41 -9 -66 8 -13 8 -34 14 -46 12 -26 -3 -39 -28 -15 -28 9 0 16 -4 16 -10 0
-5 7 -10 15 -10 8 0 15 -4 15 -8 0 -5 18 -15 40 -22 22 -7 40 -18 40 -25 0 -6
-18 -19 -40 -29 -27 -12 -40 -24 -40 -37 0 -11 -7 -19 -16 -19 -9 0 -12 5 -8
12 4 7 3 8 -5 4 -6 -4 -9 -12 -6 -17 4 -5 -2 -9 -12 -10 -10 0 -31 -3 -48 -6
-65 -12 -89 -9 -93 11 -2 10 3 23 12 28 11 6 16 23 16 58 0 49 -1 50 -30 50
-16 0 -55 -7 -87 -15 -31 -8 -72 -15 -90 -15 -18 0 -33 -4 -33 -10 0 -5 -6
-10 -14 -10 -7 0 -16 -9 -19 -19 -4 -17 -15 -19 -98 -19 -52 0 -114 -3 -139
-7 -45 -7 -45 -7 -68 33 -24 44 -29 88 -9 95 9 3 10 13 0 50 -14 51 -7 107 12
107 8 0 15 5 17 10 3 11 68 -6 78 -20 3 -4 23 -13 44 -20 37 -12 41 -11 57 9
9 11 24 21 32 21 9 0 18 6 20 13 3 7 6 4 6 -6 1 -17 7 -18 67 -12 36 4 76 8
90 8 13 0 24 5 24 11 0 7 5 17 12 24 14 14 48 16 48 3z m10280 -111 c0 -5 -5
-10 -11 -10 -5 0 -7 5 -4 10 3 6 8 10 11 10 2 0 4 -4 4 -10z m-83 -322 c-3 -7
-5 -2 -5 12 0 14 2 19 5 13 2 -7 2 -19 0 -25z m360 -84 c-3 -3 -12 -4 -19 -1
-8 3 -5 6 6 6 11 1 17 -2 13 -5z m-77 -80 c0 -8 -5 -12 -10 -9 -6 4 -8 11 -5
16 9 14 15 11 15 -7z m-20 -24 c23 -23 29 -118 8 -124 -81 -23 -130 -28 -153
-16 -35 19 -34 57 3 71 15 5 44 28 64 50 43 45 50 47 78 19z m820 -100 c0 -29
-4 -40 -15 -40 -11 0 -15 11 -15 40 0 29 4 40 15 40 11 0 15 -11 15 -40z m350
0 c0 -29 -4 -40 -15 -40 -11 0 -15 11 -15 40 0 29 4 40 15 40 11 0 15 -11 15
-40z m-7390 -30 c0 -5 -18 -10 -40 -10 -22 0 -40 5 -40 10 0 6 18 10 40 10 22
0 40 -4 40 -10z m6303 -30 c-3 -11 -7 -20 -9 -20 -2 0 -4 9 -4 20 0 11 4 20 9
20 5 0 7 -9 4 -20z m-6771 -22 c-7 -7 -12 -8 -12 -2 0 14 12 26 19 19 2 -3 -1
-11 -7 -17z m6708 3 c14 -27 1 -79 -21 -86 -26 -9 -23 -88 3 -82 23 7 24 -19
1 -32 -10 -6 -14 -11 -10 -11 5 0 5 -5 2 -10 -4 -7 -13 -7 -26 0 -13 8 -25 7
-40 -1 l-21 -11 21 -19 c14 -13 29 -18 41 -14 11 4 20 2 20 -4 0 -6 -11 -11
-25 -11 -19 0 -23 -4 -18 -17 4 -10 2 -14 -4 -10 -5 3 -19 -3 -31 -13 -17 -16
-28 -18 -59 -12 -33 7 -38 12 -41 39 -3 28 -1 31 37 37 51 8 62 24 21 32 -30
7 -70 45 -70 69 0 16 22 25 60 25 42 0 90 11 90 21 0 5 -18 9 -39 9 -54 0 -69
7 -87 41 -12 23 -12 30 -2 33 7 2 40 13 73 24 79 26 112 27 125 3z m-6770 -56
c16 -20 0 -60 -27 -67 -14 -4 -19 1 -21 19 -2 27 14 63 27 63 5 0 14 -7 21
-15z m6960 -25 c0 -36 3 -40 25 -40 23 0 25 -4 25 -40 l0 -40 80 0 80 0 0 -40
0 -40 -80 0 -80 0 0 40 0 40 -80 0 -80 0 0 40 0 40 40 0 40 0 0 40 c0 29 4 40
15 40 11 0 15 -11 15 -40z m-6510 -30 c0 -5 -4 -10 -10 -10 -5 0 -10 5 -10 10
0 6 5 10 10 10 6 0 10 -4 10 -10z m6050 -10 c0 -5 -2 -10 -4 -10 -3 0 -8 5
-11 10 -3 6 -1 10 4 10 6 0 11 -4 11 -10z m267 -22 c-3 -7 -5 -2 -5 12 0 14 2
19 5 13 2 -7 2 -19 0 -25z m-6849 -10 c-6 -18 -28 -21 -28 -4 0 9 7 16 16 16
9 0 14 -5 12 -12z m-38 -33 c0 -8 -7 -15 -15 -15 -8 0 -15 -4 -15 -10 0 -5 -7
-10 -16 -10 -11 0 -14 5 -10 16 3 9 6 20 6 25 0 5 11 9 25 9 16 0 25 -6 25
-15z m6907 -22 c-4 -3 -2 -12 3 -18 7 -9 6 -16 -3 -23 -10 -9 -13 -4 -15 19
-1 17 3 29 10 29 6 0 8 -3 5 -7z m-451 -118 c4 -8 12 -15 20 -15 19 0 18 -6
-7 -34 -17 -20 -30 -24 -85 -25 -60 -1 -64 0 -64 21 0 28 9 41 35 56 30 17 94
15 101 -3z m332 -47 c-6 -18 -28 -21 -28 -4 0 9 7 16 16 16 9 0 14 -5 12 -12z
m-10190 -1309 c-6 -16 -12 -28 -15 -25 -8 8 8 66 17 61 5 -3 4 -19 -2 -36z
m-328 -159 c0 -22 -2 -40 -4 -40 -2 0 -6 18 -8 40 -2 22 0 40 4 40 5 0 8 -18
8 -40z m-340 -195 c0 -34 -1 -35 -40 -35 -39 0 -40 1 -40 35 0 34 1 35 40 35
39 0 40 -1 40 -35z"/>
<path d="M11080 6076 c0 -9 5 -16 10 -16 6 0 10 4 10 9 0 6 -4 13 -10 16 -5 3
-10 -1 -10 -9z"/>
<path d="M10583 4930 c-15 -33 -30 -132 -48 -325 -9 -88 -20 -182 -25 -210
-28 -164 -33 -195 -36 -240 -2 -27 -6 -77 -8 -110 -3 -33 -9 -78 -15 -100 -13
-50 -14 -105 -2 -105 5 0 12 26 16 58 3 31 10 81 16 111 6 30 13 71 15 90 7
69 23 186 33 251 27 164 44 289 46 335 2 28 8 76 14 108 7 31 11 81 9 110 -3
48 -4 50 -15 27z"/>
<path d="M11495 3199 c-4 -6 -5 -12 -2 -15 2 -3 7 2 10 11 7 17 1 20 -8 4z"/>
<path d="M1120 2859 c0 -20 4 -29 13 -27 18 7 20 45 3 51 -12 5 -16 -1 -16
-24z"/>
<path d="M103 6983 c15 -2 37 -2 50 0 12 2 0 4 -28 4 -27 0 -38 -2 -22 -4z"/>
<path d="M1261 6721 c-7 -4 -3 -14 10 -24 23 -20 61 -14 53 7 -6 16 -47 26
-63 17z"/>
<path d="M5757 6701 c3 -11 12 -26 20 -33 12 -10 14 -7 11 17 -2 18 -10 31
-20 33 -12 2 -15 -2 -11 -17z"/>
<path d="M5698 6677 c12 -13 22 -31 22 -40 0 -18 15 -23 24 -9 8 13 -35 72
-52 72 -12 0 -11 -5 6 -23z"/>
<path d="M5940 6686 c0 -14 29 -31 38 -22 2 3 2 12 -1 21 -8 19 -37 20 -37 1z"/>
<path d="M3600 6654 c0 -8 5 -12 10 -9 6 4 8 11 5 16 -9 14 -15 11 -15 -7z"/>
<path d="M1122 6648 c-17 -17 -15 -28 7 -28 16 0 31 18 31 36 0 9 -27 3 -38
-8z"/>
<path d="M5620 6610 c0 -30 0 -84 -1 -120 -2 -173 7 -226 49 -272 18 -20 25
-39 26 -69 l1 -42 -74 -39 c-40 -21 -77 -38 -82 -38 -28 0 -194 -138 -256
-213 -48 -58 -134 -263 -152 -361 -22 -119 -10 -258 24 -286 12 -10 17 -7 25
16 27 71 58 118 105 161 27 25 81 75 118 111 38 36 89 78 113 94 24 15 44 31
44 36 0 13 147 106 245 155 123 61 233 97 340 112 119 16 429 13 450 -5 39
-33 51 49 24 164 -10 42 -20 61 -34 66 -11 4 -23 3 -27 -3 -4 -7 -40 6 -100
35 -112 56 -129 62 -138 48 -7 -12 -96 5 -114 21 -5 4 -10 27 -11 51 -1 24 -8
87 -15 140 -12 89 -15 97 -38 103 -23 6 -23 7 -7 25 17 18 16 21 -15 60 -24
30 -35 38 -45 30 -10 -8 -14 -2 -19 24 -7 36 -27 59 -34 38 -2 -7 -10 -12 -17
-12 -7 0 -15 -6 -18 -12 -3 -10 -14 -10 -48 2 -35 12 -51 13 -79 5 -61 -20
-111 -45 -117 -60 -10 -29 -31 -14 -42 29 -13 53 -28 66 -39 35 l-9 -22 -16
23 c-16 24 -17 23 -17 -30z m346 -32 c36 -24 84 -93 83 -118 0 -12 -3 -11 -12
4 -7 11 -28 38 -48 59 -34 38 -38 40 -94 38 -53 -1 -63 -4 -90 -34 -42 -44
-58 -87 -57 -155 1 -45 -1 -53 -9 -39 -6 11 -9 53 -7 97 3 70 6 82 34 116 34
42 56 51 123 53 31 1 55 -6 77 -21z m134 -55 c0 -10 -5 -25 -10 -33 -7 -11
-10 -7 -10 18 0 17 5 32 10 32 6 0 10 -8 10 -17z m38 -108 c3 -25 2 -27 -12
-16 -19 16 -22 55 -3 49 6 -3 14 -17 15 -33z m-278 2 c0 -7 -9 -20 -20 -30
-22 -18 -26 -7 -10 24 12 22 30 26 30 6z m19 -137 c5 0 23 11 39 25 26 22 82
35 82 20 0 -12 -56 -57 -88 -71 -31 -14 -35 -13 -62 6 -20 14 -29 29 -28 45
l2 23 23 -24 c12 -13 26 -24 32 -24z m180 -30 c-24 -22 -49 -26 -49 -10 0 15
64 52 68 39 2 -5 -6 -19 -19 -29z m-177 -50 c27 0 48 -4 48 -10 0 -13 -71 -13
-103 -1 -13 5 -27 17 -31 26 -5 15 -4 15 16 0 13 -8 43 -15 70 -15z m-37 -71
c11 -17 -1 -21 -15 -4 -8 9 -8 15 -2 15 6 0 14 -5 17 -11z m82 -65 c2 -7 -6
-10 -22 -6 -35 6 -44 24 -9 20 15 -2 29 -8 31 -14z m126 -151 c-7 -2 -19 -2
-25 0 -7 3 -2 5 12 5 14 0 19 -2 13 -5z"/>
<path d="M1658 6563 c7 -3 16 -2 19 1 4 3 -2 6 -13 5 -11 0 -14 -3 -6 -6z"/>
<path d="M2856 5744 c-7 -17 32 -74 50 -74 14 0 54 39 54 52 0 9 -65 38 -85
38 -7 0 -16 -7 -19 -16z"/>
<path d="M3392 5753 c3 -5 11 -23 18 -40 21 -49 50 -45 50 7 0 22 -4 40 -10
40 -5 0 -10 -4 -10 -10 0 -5 -7 -10 -15 -10 -8 0 -15 5 -15 10 0 6 -5 10 -11
10 -6 0 -9 -3 -7 -7z"/>
<path d="M2990 5738 c-23 -10 -23 -11 -5 -15 44 -9 82 -28 111 -55 29 -27 32
-28 48 -13 9 9 16 25 16 35 0 11 8 24 18 29 16 10 16 10 -1 11 -10 0 -27 -5
-38 -10 -11 -7 -19 -7 -19 -1 0 7 -91 34 -103 30 -1 0 -13 -5 -27 -11z"/>
<path d="M6652 5674 c1 -9 9 -19 16 -22 9 -3 13 2 10 14 -1 9 -9 19 -16 22 -9
3 -13 -2 -10 -14z"/>
<path d="M6740 5600 c0 -5 5 -10 11 -10 5 0 7 5 4 10 -3 6 -8 10 -11 10 -2 0
-4 -4 -4 -10z"/>
<path d="M6683 5554 c-7 -19 4 -31 41 -40 l29 -7 -19 26 c-24 33 -43 41 -51
21z"/>
<path d="M6000 5546 c-61 -23 -133 -57 -210 -101 -41 -24 -100 -48 -130 -55
-46 -11 -121 -49 -140 -71 -3 -3 -27 -20 -55 -39 -27 -18 -70 -52 -95 -76
-101 -95 -124 -114 -135 -114 -7 0 -26 -12 -42 -27 -16 -16 -43 -39 -60 -51
-51 -41 -84 -91 -100 -153 -12 -48 -13 -63 -3 -72 10 -9 14 -9 17 1 3 6 9 12
15 12 7 0 7 -4 1 -12 -19 -24 -32 -77 -22 -84 17 -10 -1 -62 -32 -93 -16 -16
-29 -37 -29 -47 0 -14 3 -15 12 -6 7 7 20 12 31 12 16 0 18 -7 15 -69 -3 -61
-7 -71 -33 -95 -28 -24 -29 -27 -12 -37 18 -10 18 -11 0 -31 -10 -11 -28 -24
-41 -29 -20 -8 -22 -13 -16 -51 4 -24 11 -49 16 -55 6 -7 10 -28 10 -48 0 -34
1 -35 38 -35 22 0 41 -4 44 -9 7 -11 -12 -27 -39 -34 -16 -4 -14 -5 6 -6 15 0
29 -7 32 -15 3 -7 19 -16 36 -19 27 -6 32 -12 37 -47 6 -39 8 -40 48 -42 22
-1 61 -1 84 1 49 2 92 -19 92 -47 0 -10 -19 -27 -47 -41 -27 -14 -59 -32 -73
-41 -31 -19 -161 -74 -215 -90 -22 -7 -56 -27 -75 -45 -19 -18 -55 -45 -80
-60 -24 -16 -51 -34 -58 -42 -7 -7 -17 -13 -21 -13 -4 0 -21 -11 -37 -25 -16
-14 -34 -25 -40 -25 -7 0 -14 -7 -18 -15 -3 -8 -12 -15 -19 -15 -7 0 -20 -11
-27 -25 -7 -14 -17 -25 -22 -25 -4 0 -8 -5 -8 -11 0 -11 85 47 104 71 6 8 25
22 41 30 17 8 44 27 60 42 17 16 38 28 48 28 16 0 35 8 77 32 42 24 71 30 130
30 97 1 202 -29 318 -89 138 -71 150 -80 157 -114 4 -16 15 -34 25 -39 10 -6
22 -20 26 -32 4 -13 17 -33 30 -45 13 -12 24 -29 24 -37 0 -8 9 -20 20 -26 11
-6 20 -19 20 -29 0 -10 11 -26 25 -35 14 -9 25 -22 25 -29 0 -7 9 -20 20 -30
11 -9 20 -23 20 -32 0 -8 9 -19 20 -25 11 -6 20 -15 20 -21 0 -12 114 -129
127 -129 5 0 14 -14 20 -30 6 -17 19 -30 28 -30 9 0 30 -14 47 -31 17 -17 43
-38 57 -47 14 -9 32 -25 39 -34 7 -10 21 -18 31 -18 11 0 21 -7 25 -15 3 -9
19 -15 41 -15 44 0 52 -16 35 -74 -15 -56 0 -107 40 -136 36 -26 120 -27 162
-3 26 16 30 16 38 3 4 -8 20 -28 35 -45 26 -29 59 -74 148 -202 24 -34 55 -76
71 -93 15 -17 48 -63 73 -103 25 -40 62 -97 82 -127 34 -53 155 -263 231 -405
49 -89 85 -217 105 -375 9 -69 28 -161 42 -204 13 -44 28 -113 33 -154 4 -41
12 -78 17 -83 5 -5 19 10 32 35 l24 44 -21 106 c-26 125 -26 136 -8 136 31 0
34 60 6 115 -25 50 -25 66 1 72 27 7 41 46 29 78 -5 14 -14 25 -20 25 -17 0
-50 39 -50 58 0 11 10 30 21 43 42 47 70 100 64 119 -9 27 -53 60 -82 60 -36
0 -83 -28 -93 -56 -12 -32 -25 -24 -41 23 -17 53 -123 264 -175 350 -24 40
-44 76 -44 79 0 3 -18 32 -40 63 -22 31 -79 115 -126 186 -48 72 -90 132 -94
135 -4 3 -15 20 -24 38 -9 18 -23 41 -31 50 -104 128 -130 163 -146 195 -11
20 -24 37 -29 37 -21 0 -9 30 20 52 17 12 30 27 30 34 0 6 9 23 20 37 19 23
19 27 4 35 -11 6 -13 11 -5 16 6 4 11 4 11 0 0 -4 9 1 20 11 11 10 20 25 20
33 0 9 7 23 16 33 11 12 16 45 19 115 2 55 5 108 7 119 2 12 -2 19 -9 17 -16
-3 -16 0 1 32 16 31 10 77 -6 54 -7 -9 -8 -7 -2 7 10 28 5 106 -8 122 -7 9 -7
13 0 13 5 0 10 16 9 35 -1 30 -4 34 -21 29 -12 -3 -16 -2 -9 3 13 10 20 73 9
91 -4 7 -6 25 -5 40 1 15 -3 40 -10 55 -6 16 -11 35 -11 43 0 8 -4 14 -10 14
-5 0 -10 6 -10 14 0 7 -7 19 -15 26 -12 10 -12 16 -4 26 14 17 5 44 -16 44
-12 0 -14 4 -5 19 13 26 13 31 -3 31 -10 0 -14 15 -13 52 l1 51 55 12 c62 12
120 43 120 62 0 8 11 18 24 23 33 12 48 43 44 88 -2 30 1 39 20 47 24 11 28
20 12 30 -18 11 -11 43 11 50 23 8 23 19 -6 135 -9 36 -19 125 -22 198 -3 72
-9 132 -13 132 -5 0 -11 -24 -15 -52 -18 -131 -49 -246 -107 -393 -63 -160
-79 -192 -117 -228 -40 -38 -78 -54 -166 -68 -111 -19 -191 -8 -180 24 6 16
-21 50 -34 43 -5 -4 -15 4 -22 16 -19 37 -44 56 -97 73 -48 16 -51 19 -57 58
-4 22 -16 49 -26 61 -11 11 -19 28 -19 38 0 10 -6 21 -14 24 -7 3 -22 23 -32
44 -11 24 -26 40 -36 40 -10 0 -18 7 -18 15 0 8 -11 26 -25 40 -24 24 -25 25
-5 25 25 0 26 12 1 34 -15 13 -20 14 -24 4 -3 -7 -6 -3 -6 10 -1 23 -28 98
-59 161 -9 18 -16 52 -15 75 6 116 14 176 32 228 17 49 17 57 5 62 -9 3 -12
11 -9 16 5 8 12 7 22 -1 12 -10 16 -10 24 2 8 13 11 26 7 32 -1 1 15 20 35 42
46 50 48 73 7 82 -30 5 -42 23 -17 23 14 0 57 52 57 69 0 23 158 141 188 141
12 0 24 5 27 10 8 13 -22 11 -65 -4z m-492 -636 c12 -12 22 -29 22 -39 0 -15
-7 -12 -37 16 -30 29 -41 34 -67 29 -22 -4 -27 -3 -16 4 25 16 75 11 98 -10z
m-128 -19 c0 -6 -4 -13 -10 -16 -5 -3 -10 1 -10 9 0 9 5 16 10 16 6 0 10 -4
10 -9z m70 -46 c7 -8 18 -15 25 -15 13 0 25 -21 25 -44 0 -7 -9 -23 -20 -36
-11 -13 -20 -37 -20 -54 0 -42 -14 -64 -25 -39 -21 50 -40 165 -31 188 7 19
30 19 46 0z m150 -200 c0 -14 -4 -25 -10 -25 -5 0 -10 4 -10 9 0 5 -3 16 -6
25 -4 11 -1 16 10 16 10 0 16 -9 16 -25z m-126 -31 c3 -8 2 -12 -4 -9 -6 3
-10 10 -10 16 0 14 7 11 14 -7z m126 -66 c19 -6 40 -14 45 -19 15 -11 17 -97
3 -105 -7 -5 -9 3 -6 25 4 27 2 31 -19 31 -13 0 -23 -6 -23 -13 0 -21 -37 -50
-54 -44 -12 5 -13 12 -5 37 6 16 15 30 20 30 5 0 9 7 9 15 0 9 -9 15 -24 15
-14 0 -30 10 -40 25 l-16 25 37 -6 c21 -3 54 -10 73 -16z m80 -160 c0 -18 -2
-20 -9 -8 -6 8 -7 18 -5 22 9 14 14 9 14 -14z m320 -258 c0 -5 -8 -10 -17 -10
-15 0 -16 2 -3 10 19 12 20 12 20 0z m-240 -42 c0 -5 10 -18 23 -28 19 -16 20
-21 9 -40 -18 -29 3 -100 30 -100 11 0 18 7 18 20 0 28 38 26 49 -2 12 -33 28
-176 31 -278 0 -19 39 -45 51 -33 11 11 -11 206 -24 214 -11 7 48 72 73 81 8
3 26 1 40 -5 58 -23 178 -1 300 55 60 28 65 29 77 12 9 -12 11 -33 7 -63 -7
-55 -7 -46 -4 -101 2 -51 6 -46 15 23 10 75 17 67 55 -68 4 -16 11 -52 15 -80
4 -27 12 -56 18 -64 11 -12 14 -37 18 -111 0 -14 5 -30 11 -37 6 -8 6 -18 0
-29 -6 -11 -7 -27 -1 -42 17 -44 25 -194 16 -304 -5 -67 -28 -125 -96 -241
-43 -75 -80 -88 -106 -38 -8 16 -20 35 -27 43 -8 7 -31 36 -53 63 -21 28 -44
55 -49 60 -6 6 -29 33 -50 60 -60 75 -283 291 -346 333 -30 20 -77 58 -105 84
-27 26 -53 48 -56 48 -4 0 -39 19 -78 43 -73 44 -117 99 -105 132 4 8 2 21 -4
28 -5 6 -12 35 -14 62 -3 46 -1 50 20 53 15 2 29 16 40 40 22 47 47 72 72 72
15 0 20 7 20 25 0 16 6 25 15 25 8 0 15 -7 15 -16 0 -14 2 -14 16 -3 12 10 15
24 11 53 -4 29 -1 46 10 58 15 17 43 14 43 -4z m370 7 c0 -8 8 -15 18 -15 14
0 14 -2 3 -9 -9 -6 -23 -5 -38 2 -18 8 -20 13 -12 24 15 17 29 17 29 -2z
m-610 -235 c0 -5 -4 -10 -10 -10 -5 0 -10 5 -10 10 0 6 5 10 10 10 6 0 10 -4
10 -10z m-120 -79 c0 -9 6 -25 14 -36 29 -43 24 -102 -7 -77 -7 5 -50 24 -97
42 -47 17 -89 35 -93 40 -10 9 48 24 62 16 5 -3 11 1 15 9 3 8 14 15 24 15 10
0 27 6 38 14 22 16 44 5 44 -23z m365 -441 c44 -33 91 -69 105 -79 30 -24 153
-145 195 -192 144 -163 225 -269 225 -294 0 -17 -16 -20 -25 -5 -4 6 -14 10
-23 9 -10 -2 -46 25 -82 59 -35 34 -69 61 -75 60 -12 -3 -65 48 -65 62 0 6 -3
10 -8 10 -14 0 -121 109 -149 152 -15 23 -35 50 -44 59 -9 9 -19 23 -23 30 -5
11 -7 11 -12 2 -11 -23 -19 -13 -20 23 0 24 -8 42 -21 53 -12 9 -23 25 -25 36
-2 10 -20 28 -41 39 -42 22 -46 31 -15 33 13 1 55 -22 103 -57z m875 -250 c0
-5 -4 -10 -10 -10 -5 0 -10 5 -10 10 0 6 5 10 10 10 6 0 10 -4 10 -10z m-40
-140 c0 -5 -2 -10 -4 -10 -3 0 -8 5 -11 10 -3 6 -1 10 4 10 6 0 11 -4 11 -10z
m-200 -186 c0 -9 -5 -14 -12 -12 -18 6 -21 28 -4 28 9 0 16 -7 16 -16z m42
-43 c13 -5 32 -25 42 -45 16 -31 17 -42 8 -74 -18 -59 -52 -85 -109 -84 -40 0
-52 5 -75 31 -38 43 -41 95 -7 143 25 34 91 48 141 29z"/>
<path d="M6416 5468 c-9 -12 -16 -28 -16 -35 0 -20 -24 -15 -38 7 -14 23 -62
28 -62 6 0 -8 14 -23 31 -34 17 -10 39 -32 50 -48 17 -25 19 -26 19 -8 0 11
14 41 31 67 28 43 31 67 9 67 -5 0 -16 -10 -24 -22z"/>
<path d="M5398 5317 c-29 -23 -35 -37 -18 -37 9 0 60 47 60 55 0 10 -16 3 -42
-18z"/>
<path d="M6624 5301 c-81 -20 -174 -84 -174 -122 0 -11 -7 -31 -16 -44 -14
-21 -14 -32 -4 -75 9 -37 17 -50 30 -50 10 0 33 -6 51 -14 42 -17 111 -14 142
7 16 10 24 25 25 46 1 36 8 51 25 51 16 0 34 -43 46 -103 5 -27 11 -51 15 -54
11 -11 6 31 -9 92 -13 47 -13 69 -5 110 15 72 -7 129 -57 150 -20 8 -36 15
-37 14 0 -1 -15 -4 -32 -8z m80 -82 c15 -17 26 -43 26 -59 0 -29 -1 -29 -47
-24 -30 4 -72 0 -112 -11 -35 -9 -65 -15 -66 -13 -2 2 12 14 31 27 26 18 48
24 89 24 30 0 55 3 55 7 0 16 -60 32 -92 25 -30 -6 -31 -5 -18 8 20 21 71 47
92 47 9 0 28 -14 42 -31z m-129 -152 c8 -18 17 -22 48 -20 20 1 37 -1 37 -5 0
-39 -95 -42 -155 -5 -20 13 -19 14 8 38 31 27 48 25 62 -8z"/>
<path d="M5284 5282 c-14 -9 -24 -51 -14 -57 4 -3 11 7 15 22 3 16 12 31 18
35 7 4 8 8 2 8 -5 0 -15 -4 -21 -8z"/>
<path d="M5350 5260 c-8 -5 -11 -12 -7 -16 4 -4 13 -2 19 4 15 15 7 24 -12 12z"/>
<path d="M5949 5217 c-49 -18 -101 -60 -134 -107 -48 -70 -11 -75 62 -9 50 46
105 64 167 55 53 -8 52 -22 -2 -32 -36 -6 -66 -24 -127 -78 -16 -14 -38 -26
-47 -26 -24 0 -23 -37 1 -50 11 -5 31 -10 44 -10 13 0 32 -9 43 -21 16 -18 28
-20 89 -17 94 5 166 39 177 86 10 37 18 40 43 12 10 -11 26 -20 37 -20 11 0
18 7 18 20 0 11 -4 20 -9 20 -5 0 -11 10 -13 23 -2 12 -10 22 -18 22 -8 0 -16
10 -18 23 -2 14 2 22 10 22 15 0 58 36 58 48 0 8 -208 42 -295 48 -27 2 -66
-2 -86 -9z m190 -126 c17 -11 0 -16 -76 -26 -61 -8 -67 -1 -20 19 37 17 76 19
96 7z m-72 -71 c-6 -22 9 -37 38 -40 39 -4 55 0 55 15 0 8 5 15 10 15 6 0 10
-6 10 -14 0 -22 -64 -46 -124 -46 -44 0 -57 4 -66 19 -8 16 -4 24 21 45 37 32
64 34 56 6z"/>
<path d="M3640 5012 c0 -16 9 -37 20 -47 18 -16 81 -107 145 -210 10 -16 26
-38 36 -48 9 -11 20 -30 24 -44 3 -14 17 -40 31 -58 13 -17 24 -39 24 -48 0
-10 6 -17 13 -17 13 -1 67 -80 67 -99 0 -8 12 -6 37 4 20 9 39 18 41 20 9 8
-21 36 -33 31 -15 -5 -124 140 -240 319 -46 72 -92 141 -102 154 -10 13 -20
33 -23 45 -3 11 -14 22 -23 24 -13 3 -17 -4 -17 -26z"/>
<path d="M6760 4910 c0 -5 5 -10 11 -10 5 0 7 5 4 10 -3 6 -8 10 -11 10 -2 0
-4 -4 -4 -10z"/>
<path d="M6332 4857 c-9 -11 -10 -17 -2 -22 15 -9 23 -1 18 21 -3 15 -4 16
-16 1z"/>
<path d="M3610 4796 c0 -8 13 -29 30 -47 16 -18 46 -60 67 -94 20 -33 57 -87
82 -119 38 -50 46 -56 52 -40 4 10 2 26 -5 35 -6 9 -50 67 -97 130 -47 63 -88
122 -92 132 -8 21 -37 23 -37 3z"/>
<path d="M6267 4711 c-23 -39 -21 -77 4 -102 18 -18 28 -19 89 -13 46 4 74 3
83 -4 10 -9 19 -7 35 4 31 21 29 46 -2 38 -17 -4 -27 -1 -34 12 -11 20 -60 22
-105 3 -26 -11 -31 -10 -43 6 -13 17 -12 31 3 73 10 24 -13 12 -30 -17z"/>
<path d="M6523 4675 c-3 -9 -3 -18 0 -21 9 -9 27 6 27 22 0 19 -19 18 -27 -1z"/>
<path d="M3507 4647 c-3 -8 10 -36 29 -63 53 -74 89 -155 73 -164 -9 -6 -2
-25 29 -72 23 -36 42 -70 42 -77 0 -9 9 -12 25 -9 19 4 25 1 25 -13 0 -24 38
-45 54 -29 8 8 7 14 -7 21 -12 7 -15 17 -11 35 5 19 0 32 -19 52 -14 15 -39
50 -56 77 -30 49 -41 69 -104 174 -37 62 -71 91 -80 68z"/>
<path d="M4020 4589 c0 -17 4 -28 10 -24 6 3 10 17 10 31 0 13 -4 24 -10 24
-5 0 -10 -14 -10 -31z"/>
<path d="M4120 4590 c0 -5 5 -10 10 -10 6 0 10 5 10 10 0 6 -4 10 -10 10 -5 0
-10 -4 -10 -10z"/>
<path d="M3488 4574 c-11 -10 3 -40 24 -53 11 -7 17 -8 13 -2 -3 6 -12 22 -19
36 -7 14 -15 22 -18 19z"/>
<path d="M3461 4549 c-1 -9 -18 -27 -38 -40 -21 -13 -39 -33 -41 -44 -3 -20
38 -90 77 -132 12 -12 21 -24 21 -27 0 -3 19 -30 41 -61 41 -53 61 -66 74 -45
4 6 23 17 42 25 l37 15 -36 38 c-54 57 -148 198 -163 245 -7 23 -13 35 -14 26z
m-8 -63 c7 -8 29 -38 47 -68 18 -29 48 -76 66 -104 38 -56 42 -74 18 -74 -21
0 -81 69 -139 161 -5 9 -18 28 -29 43 -15 21 -16 29 -6 41 15 19 25 19 43 1z"/>
<path d="M6490 4528 c-14 -6 -63 -11 -110 -12 -132 -3 -257 -53 -221 -89 7 -7
15 -7 23 0 14 11 42 15 228 33 138 13 182 22 187 37 8 24 -69 47 -107 31z
m-93 -44 c-3 -3 -12 -4 -19 -1 -8 3 -5 6 6 6 11 1 17 -2 13 -5z"/>
<path d="M6175 4520 c-3 -5 1 -10 9 -10 9 0 16 5 16 10 0 6 -4 10 -9 10 -6 0
-13 -4 -16 -10z"/>
<path d="M6270 4415 c0 -6 26 -16 58 -23 60 -12 180 -25 149 -16 -14 5 -16 9
-6 20 6 8 10 16 8 18 -2 2 -50 6 -106 8 -74 4 -103 2 -103 -7z"/>
<path d="M3974 4408 c-29 -46 -44 -88 -50 -141 -5 -39 -13 -65 -25 -76 -11 -8
-19 -25 -19 -36 0 -33 -16 -47 -56 -54 -41 -7 -58 -29 -22 -29 13 -1 37 -4 54
-7 30 -7 32 -5 38 30 4 20 18 57 32 82 18 34 24 62 24 107 0 44 6 70 21 95 11
18 18 35 16 38 -3 2 -9 -2 -13 -9z"/>
<path d="M3891 4384 c0 -11 3 -14 6 -6 3 7 2 16 -1 19 -3 4 -6 -2 -5 -13z"/>
<path d="M4120 4391 c0 -4 -9 -20 -21 -35 -17 -21 -24 -24 -40 -16 -23 13 -26
-2 -4 -20 18 -15 19 -65 1 -145 -7 -33 -23 -107 -36 -165 -18 -81 -29 -112
-51 -138 -16 -18 -29 -36 -29 -41 0 -14 -85 -98 -106 -105 -12 -4 -29 -15 -39
-26 -10 -11 -23 -20 -30 -20 -6 0 -22 -11 -35 -25 -13 -14 -29 -25 -37 -25 -7
0 -13 -9 -13 -20 0 -12 -10 -25 -25 -32 -14 -6 -28 -22 -31 -35 -10 -39 0
-301 12 -313 8 -8 25 -4 60 13 27 14 65 32 84 40 152 67 172 78 217 129 27 29
83 86 126 128 43 42 79 85 79 96 2 17 -52 107 -73 124 -4 3 -21 29 -38 59 -30
50 -31 55 -15 72 18 20 11 41 -11 32 -18 -6 -20 38 -4 107 6 25 13 63 17 85 6
32 11 40 27 38 11 -1 14 0 8 3 -19 8 -18 124 1 124 8 0 17 -6 20 -12 7 -14 30
-49 58 -90 15 -20 16 -30 6 -59 -16 -50 -41 -99 -50 -99 -5 0 -8 -6 -8 -14 0
-9 7 -12 19 -9 13 3 23 -2 31 -18 11 -20 9 -26 -26 -56 -21 -18 -42 -33 -46
-33 -18 0 -5 -30 47 -108 30 -46 55 -87 55 -90 0 -4 4 -13 9 -21 7 -10 18 -4
50 27 22 22 41 47 41 56 0 9 8 16 19 16 10 0 24 7 31 15 7 8 20 15 30 15 9 0
25 9 35 20 17 19 16 22 -39 112 -70 113 -143 228 -214 334 -41 61 -51 85 -47
107 2 15 0 27 -5 27 -6 0 -10 -4 -10 -9z m150 -343 c11 -24 15 -44 10 -46 -16
-6 -11 -29 13 -59 29 -35 79 -134 72 -141 -6 -6 -4 -9 -47 53 -43 63 -90 142
-105 177 -10 22 -10 30 3 43 24 23 33 18 54 -27z m-241 -215 c-23 -30 -113
-113 -121 -113 -4 0 -8 3 -8 7 0 10 72 83 82 83 5 0 18 9 30 20 27 25 35 26
17 3z m39 -78 c17 -36 15 -41 -8 -20 -20 18 -27 45 -12 45 5 0 14 -11 20 -25z
m-23 -115 c10 -22 24 -40 30 -40 14 0 29 -29 20 -38 -3 -3 -7 -3 -8 -1 -36 43
-85 118 -80 123 10 9 19 -1 38 -44z"/>
<path d="M3792 4339 c-12 -18 -11 -20 5 -17 10 2 19 11 21 21 5 23 -10 21 -26
-4z"/>
<path d="M4506 4208 l-139 -141 28 -51 c15 -28 34 -58 41 -67 8 -8 14 -20 14
-26 0 -5 11 -20 25 -33 l24 -23 39 35 c21 19 57 43 79 54 23 10 44 28 47 39
18 65 -1 286 -21 238 -7 -18 -23 -16 -23 3 0 9 9 18 19 21 24 6 35 47 21 73
-6 11 -12 20 -13 19 -1 0 -65 -64 -141 -141z"/>
<path d="M3821 4226 c-9 -11 -8 -18 4 -30 30 -29 40 -21 29 22 -7 25 -17 28
-33 8z"/>
<path d="M4960 4049 c0 -5 5 -7 10 -4 6 3 10 8 10 11 0 2 -4 4 -10 4 -5 0 -10
-5 -10 -11z"/>
<path d="M4905 4030 c-3 -5 -1 -10 4 -10 6 0 11 5 11 10 0 6 -2 10 -4 10 -3 0
-8 -4 -11 -10z"/>
<path d="M4920 3990 c0 -5 10 -14 22 -21 18 -10 20 -9 15 6 -4 9 -7 19 -7 21
0 2 -7 4 -15 4 -8 0 -15 -4 -15 -10z"/>
<path d="M4793 3973 c-18 -7 -16 -23 2 -23 8 0 15 7 15 15 0 8 -1 15 -2 14 -2
0 -9 -3 -15 -6z"/>
<path d="M4095 3949 c-11 -17 1 -21 15 -4 8 9 8 15 2 15 -6 0 -14 -5 -17 -11z"/>
<path d="M5005 3930 c-3 -5 3 -10 14 -10 12 0 21 5 21 10 0 6 -6 10 -14 10 -8
0 -18 -4 -21 -10z"/>
<path d="M4795 3909 c-4 -6 -5 -12 -2 -15 2 -3 7 2 10 11 7 17 1 20 -8 4z"/>
<path d="M4630 3880 c-12 -8 -10 -10 8 -10 13 0 20 4 17 10 -7 12 -6 12 -25 0z"/>
<path d="M4460 3750 c0 -5 5 -10 10 -10 6 0 10 5 10 10 0 6 -4 10 -10 10 -5 0
-10 -4 -10 -10z"/>
<path d="M4415 3720 c-3 -5 -1 -10 4 -10 6 0 11 5 11 10 0 6 -2 10 -4 10 -3 0
-8 -4 -11 -10z"/>
<path d="M4527 3343 c-4 -3 -7 -11 -7 -17 0 -6 5 -5 12 2 6 6 9 14 7 17 -3 3
-9 2 -12 -2z"/>
<path d="M4483 3271 c-15 -19 -103 -177 -103 -187 0 -2 5 -4 10 -4 6 0 10 6
10 14 0 8 13 28 29 45 29 31 71 107 71 128 0 6 6 14 13 16 9 4 9 6 -1 6 -7 1
-20 -8 -29 -18z"/>
<path d="M2245 3110 c-9 -15 14 -40 36 -40 22 0 23 8 5 33 -15 19 -32 22 -41
7z"/>
<path d="M2320 3069 c0 -15 4 -19 16 -15 9 3 27 6 40 6 15 0 24 6 24 15 0 11
-11 15 -40 15 -34 0 -40 -3 -40 -21z"/>
<path d="M4367 3063 c-4 -3 -7 -19 -7 -35 0 -16 -5 -38 -10 -49 -6 -10 -7 -19
-3 -19 13 0 42 86 34 99 -4 6 -10 8 -14 4z"/>
<path d="M7467 3064 c-9 -10 4 -386 15 -406 5 -10 13 -18 18 -18 5 0 58 -35
117 -79 154 -111 260 -169 498 -271 27 -12 66 -28 85 -37 154 -68 149 -67 162
-38 8 18 8 32 -2 55 -15 37 -49 59 -60 40 -18 -29 -170 40 -170 77 0 7 -9 13
-20 13 -11 0 -20 -4 -20 -9 0 -5 -14 -6 -32 -2 -26 5 -34 13 -42 41 -6 24 -11
29 -13 18 -6 -26 -20 -22 -40 12 -9 17 -21 30 -25 30 -32 0 -58 18 -58 39 0
18 -25 36 -44 32 -5 -1 -15 7 -23 19 -8 11 -21 20 -29 20 -21 0 -44 25 -44 48
0 27 10 33 27 16 9 -8 28 -18 44 -21 16 -3 29 -12 29 -19 0 -8 8 -14 19 -14
10 0 24 -7 31 -15 7 -8 18 -15 25 -15 6 0 20 -9 30 -20 20 -22 51 -26 58 -7 4
9 6 9 6 0 1 -7 15 -19 31 -28 17 -9 30 -23 30 -33 0 -14 2 -15 10 -2 8 12 10
12 15 -2 4 -11 17 -16 38 -16 32 1 97 -20 108 -35 3 -5 25 -7 49 -5 47 3 54
15 41 65 l-7 28 -19 -23 c-23 -26 -45 -29 -45 -4 -1 26 -67 64 -90 52 -13 -7
-21 -7 -25 0 -3 5 -18 10 -32 10 -14 0 -41 12 -60 26 -19 14 -40 27 -48 28
-19 3 -45 26 -45 41 0 7 -17 20 -37 29 -47 20 -68 34 -103 69 -16 15 -36 27
-44 27 -9 0 -16 8 -16 20 0 16 -7 20 -36 20 -19 0 -42 -6 -50 -14 -18 -19 -18
-30 1 -22 12 4 15 -2 14 -27 -1 -23 -3 -26 -6 -9 -4 18 -9 21 -29 16 -26 -7
-34 12 -13 33 8 8 7 14 -3 22 -67 58 -70 61 -47 61 17 0 20 4 15 23 -3 12 -6
30 -6 40 0 9 -7 17 -15 17 -8 0 -15 8 -15 18 0 13 -2 14 -9 3 -7 -11 -12 -7
-25 15 -8 16 -15 24 -16 19 0 -6 -9 -11 -21 -12 -19 -2 -20 2 -15 33 6 31 -1
43 -17 28z m301 -343 c10 -6 5 -11 -17 -20 -29 -13 -51 -9 -51 9 0 8 20 16 45
19 6 0 16 -3 23 -8z"/>
<path d="M7571 3024 c0 -11 3 -14 6 -6 3 7 2 16 -1 19 -3 4 -6 -2 -5 -13z"/>
<path d="M2123 2975 c-3 -9 -3 -18 -1 -21 9 -9 38 8 38 22 0 19 -29 18 -37 -1z"/>
<path d="M7666 2952 c-3 -5 1 -15 9 -22 21 -17 27 -9 10 13 -7 10 -16 14 -19
9z"/>
<path d="M2040 2925 c-7 -9 -10 -18 -7 -21 8 -8 62 10 62 21 0 15 -43 15 -55
0z"/>
<path d="M1957 2846 c-18 -19 -23 -46 -7 -46 12 0 32 38 28 52 -2 6 -11 4 -21
-6z"/>
<path d="M7215 2630 c-10 -16 9 -33 30 -28 16 3 15 5 -3 21 -14 13 -22 15 -27
7z"/>
<path d="M1761 2574 c0 -11 3 -14 6 -6 3 7 2 16 -1 19 -3 4 -6 -2 -5 -13z"/>
<path d="M5880 2500 c0 -24 5 -31 26 -36 17 -4 31 -1 41 8 13 14 12 15 -10 11
-20 -4 -26 0 -31 21 -9 35 -26 33 -26 -4z"/>
<path d="M8640 2400 c0 -11 5 -20 10 -20 6 0 10 9 10 20 0 11 -4 20 -10 20 -5
0 -10 -9 -10 -20z"/>
<path d="M8830 2200 c0 -15 5 -20 18 -18 9 2 17 10 17 18 0 8 -8 16 -17 18
-13 2 -18 -3 -18 -18z"/>
<path d="M9703 2068 c-13 -6 -23 -15 -23 -20 0 -4 -11 -8 -25 -8 -14 0 -25 -4
-25 -8 0 -17 13 -21 31 -11 14 7 19 6 19 -3 0 -11 21 -25 68 -45 6 -3 12 2 12
10 0 8 11 22 25 31 14 9 25 21 25 26 0 5 -11 12 -25 16 -14 3 -25 10 -25 15 0
12 -30 10 -57 -3z"/>
<path d="M12338 1993 c12 -2 32 -2 45 0 12 2 2 4 -23 4 -25 0 -35 -2 -22 -4z"/>
<path d="M3841 1944 c0 -11 3 -14 6 -6 3 7 2 16 -1 19 -3 4 -6 -2 -5 -13z"/>
<path d="M11580 1934 c-13 -33 -13 -34 5 -34 10 0 15 10 15 30 0 37 -7 38 -20
4z"/>
<path d="M12018 1923 c12 -2 32 -2 45 0 12 2 2 4 -23 4 -25 0 -35 -2 -22 -4z"/>
<path d="M11536 1862 c-38 -8 -63 -52 -31 -52 8 0 15 7 15 15 0 9 9 15 25 15
14 0 25 4 25 9 0 14 -12 18 -34 13z"/>
<path d="M3900 1830 c0 -5 5 -10 10 -10 6 0 10 5 10 10 0 6 -4 10 -10 10 -5 0
-10 -4 -10 -10z"/>
<path d="M11600 1750 c0 -12 8 -12 35 0 18 8 17 9 -7 9 -16 1 -28 -3 -28 -9z"/>
<path d="M11920 1751 c0 -10 50 -25 58 -16 3 3 -3 6 -14 6 -12 1 -7 4 11 9 28
7 27 8 -12 9 -24 0 -43 -3 -43 -8z"/>
<path d="M11373 1730 c-13 -5 -23 -16 -23 -24 0 -10 6 -13 15 -10 8 4 22 1 29
-5 15 -12 24 -5 20 17 -1 6 -2 17 -3 22 -1 12 -8 12 -38 0z"/>
<path d="M11600 1720 c0 -6 7 -10 15 -10 8 0 15 2 15 4 0 2 -7 6 -15 10 -8 3
-15 1 -15 -4z"/>
<path d="M11728 1713 c23 -2 59 -2 80 0 20 2 1 4 -43 4 -44 0 -61 -2 -37 -4z"/>
<path d="M6557 843 c-15 -14 -7 -43 12 -43 14 0 17 6 13 25 -4 25 -13 31 -25
18z"/>
<path d="M6620 800 c-13 -8 -12 -10 3 -10 9 0 17 5 17 10 0 12 -1 12 -20 0z"/>
<path d="M11203 675 c0 -38 2 -53 4 -32 2 20 2 52 0 70 -2 17 -4 1 -4 -38z"/>
<path d="M6960 580 c0 -5 4 -10 9 -10 6 0 13 5 16 10 3 6 -1 10 -9 10 -9 0
-16 -4 -16 -10z"/>
<path d="M1237 513 c-12 -12 -7 -33 8 -33 17 0 19 9 7 28 -5 7 -11 9 -15 5z"/>
<path d="M6975 510 c-3 -5 3 -10 14 -10 12 0 21 5 21 10 0 6 -6 10 -14 10 -8
0 -18 -4 -21 -10z"/>
<path d="M6972 460 c0 -14 2 -19 5 -12 2 6 2 18 0 25 -3 6 -5 1 -5 -13z"/>
<path d="M1281 367 c-1 -51 2 -68 12 -64 13 4 12 74 -3 111 -6 15 -9 1 -9 -47z"/>
<path d="M1127 383 c-11 -10 -8 -43 3 -43 6 0 10 11 10 25 0 26 -2 29 -13 18z"/>
<path d="M6480 245 c0 -8 4 -15 10 -15 5 0 7 7 4 15 -4 8 -8 15 -10 15 -2 0
-4 -7 -4 -15z"/>
<path d="M1298 233 c12 -2 32 -2 45 0 12 2 2 4 -23 4 -25 0 -35 -2 -22 -4z"/>
<path d="M343 213 c192 -2 502 -2 690 0 188 1 32 2 -348 2 -379 0 -533 -1
-342 -2z"/>
</g>
</svg>
